<svg xmlns="http://www.w3.org/2000/svg" viewBox="0 0 512 512">
  <rect width="512" height="512" rx="96" fill="#17202a"/>
  <circle cx="256" cy="256" r="170" fill="#f5f7fb"/>
  <path d="M86 256a170 170 0 0 1 340 0H86z" fill="#d92435"/>
  <rect x="80" y="236" width="352" height="40" rx="20" fill="#17202a"/>
  <circle cx="256" cy="256" r="70" fill="#17202a"/>
  <circle cx="256" cy="256" r="42" fill="#f5f7fb"/>
  <path d="M165 365h182c13 0 24 11 24 24v10H141v-10c0-13 11-24 24-24z" fill="#f0b429"/>
  <path d="M182 142h154c15 0 28 13 28 28v37H154v-37c0-15 13-28 28-28z" fill="#246bfe" opacity=".92"/>
</svg>
